<svg xmlns="http://www.w3.org/2000/svg" xmlns:xlink="http://www.w3.org/1999/xlink" width="40" zoomAndPan="magnify" viewBox="0 0 30 30.000001" height="40" preserveAspectRatio="xMidYMid meet" version="1.0"><defs><g/><clipPath id="f3c2d233ac"><path d="M 0.484375 0 L 29.515625 0 L 29.515625 29.03125 L 0.484375 29.03125 Z M 0.484375 0 " clip-rule="nonzero"/></clipPath></defs><g clip-path="url(#f3c2d233ac)"><path fill="#ffffff" d="M 0.484375 0 L 29.515625 0 L 29.515625 29.03125 L 0.484375 29.03125 Z M 0.484375 0 " fill-opacity="1" fill-rule="nonzero"/><path fill="#6a11cb" d="M 0.484375 0 L 29.515625 0 L 29.515625 29.03125 L 0.484375 29.03125 Z M 0.484375 0 " fill-opacity="1" fill-rule="nonzero"/></g><g fill="#ffffff" fill-opacity="1"><g transform="translate(9.211693, 21.525875)"><g><path d="M 0.25 -21.328125 C 0.0820312 -21.273438 0 -21.328125 0 -21.484375 C -0.0195312 -21.585938 0.00390625 -21.675781 0.078125 -21.75 C 0.148438 -21.851562 0.253906 -21.878906 0.390625 -21.828125 C 0.515625 -21.773438 0.578125 -21.6875 0.578125 -21.5625 C 0.578125 -21.457031 0.523438 -21.394531 0.421875 -21.375 C 0.398438 -21.363281 0.375 -21.351562 0.34375 -21.34375 C 0.320312 -21.34375 0.289062 -21.335938 0.25 -21.328125 Z M -2.53125 -19.578125 C -2.476562 -19.546875 -2.453125 -19.484375 -2.453125 -19.390625 C -2.472656 -19.316406 -2.503906 -19.273438 -2.546875 -19.265625 C -2.546875 -19.265625 -2.578125 -19.25 -2.640625 -19.21875 C -2.710938 -19.195312 -2.765625 -19.21875 -2.796875 -19.28125 C -2.816406 -19.320312 -2.8125 -19.378906 -2.78125 -19.453125 C -2.75 -19.484375 -2.734375 -19.507812 -2.734375 -19.53125 C -2.710938 -19.5625 -2.6875 -19.582031 -2.65625 -19.59375 C -2.625 -19.601562 -2.582031 -19.597656 -2.53125 -19.578125 Z M 2.125 -17.875 C 2.125 -17.894531 2.113281 -17.914062 2.09375 -17.9375 C 2.082031 -17.96875 2.070312 -17.992188 2.0625 -18.015625 C 1.9375 -18.140625 1.90625 -18.285156 1.96875 -18.453125 C 1.988281 -18.515625 2.015625 -18.566406 2.046875 -18.609375 C 2.085938 -18.660156 2.117188 -18.695312 2.140625 -18.71875 C 2.160156 -18.757812 2.195312 -18.78125 2.25 -18.78125 C 2.300781 -18.78125 2.347656 -18.785156 2.390625 -18.796875 C 2.429688 -18.804688 2.46875 -18.8125 2.5 -18.8125 C 2.539062 -18.8125 2.578125 -18.820312 2.609375 -18.84375 L 2.640625 -18.84375 C 2.703125 -18.8125 2.757812 -18.785156 2.8125 -18.765625 C 2.863281 -18.742188 2.90625 -18.71875 2.9375 -18.6875 C 2.96875 -18.65625 2.992188 -18.613281 3.015625 -18.5625 C 3.035156 -18.507812 3.054688 -18.472656 3.078125 -18.453125 C 3.109375 -18.421875 3.109375 -18.375 3.078125 -18.3125 C 3.078125 -18.300781 3.070312 -18.296875 3.0625 -18.296875 C 3.039062 -18.222656 3.054688 -18.164062 3.109375 -18.125 C 3.128906 -18.09375 3.128906 -18.054688 3.109375 -18.015625 L 3.03125 -18.015625 C 2.96875 -17.972656 2.9375 -17.921875 2.9375 -17.859375 C 2.914062 -17.765625 2.851562 -17.71875 2.75 -17.71875 C 2.707031 -17.707031 2.660156 -17.703125 2.609375 -17.703125 C 2.566406 -17.710938 2.519531 -17.71875 2.46875 -17.71875 C 2.414062 -17.71875 2.382812 -17.734375 2.375 -17.765625 C 2.320312 -17.804688 2.253906 -17.816406 2.171875 -17.796875 C 2.140625 -17.796875 2.125 -17.820312 2.125 -17.875 Z M -0.734375 -17.46875 C -0.785156 -17.488281 -0.828125 -17.53125 -0.859375 -17.59375 C -0.890625 -17.664062 -0.898438 -17.722656 -0.890625 -17.765625 C -0.785156 -17.890625 -0.679688 -17.929688 -0.578125 -17.890625 C -0.503906 -17.847656 -0.484375 -17.753906 -0.515625 -17.609375 C -0.566406 -17.492188 -0.640625 -17.445312 -0.734375 -17.46875 Z M 11.3125 -16.640625 L 11.359375 -16.640625 C 11.359375 -16.597656 11.359375 -16.554688 11.359375 -16.515625 C 11.359375 -16.484375 11.335938 -16.453125 11.296875 -16.421875 C 11.296875 -16.453125 11.296875 -16.484375 11.296875 -16.515625 C 11.296875 -16.554688 11.300781 -16.597656 11.3125 -16.640625 Z M 12.28125 -15.171875 C 12.332031 -15.117188 12.335938 -15.050781 12.296875 -14.96875 C 12.265625 -14.894531 12.222656 -14.847656 12.171875 -14.828125 C 12.148438 -14.816406 12.144531 -14.800781 12.15625 -14.78125 C 12.164062 -14.769531 12.175781 -14.765625 12.1875 -14.765625 C 12.15625 -14.742188 12.125 -14.722656 12.09375 -14.703125 C 12.070312 -14.691406 12.050781 -14.679688 12.03125 -14.671875 C 12.03125 -14.628906 12.039062 -14.613281 12.0625 -14.625 C 12.09375 -14.644531 12.113281 -14.648438 12.125 -14.640625 L 11.859375 -14.421875 C 11.816406 -14.378906 11.773438 -14.335938 11.734375 -14.296875 C 11.691406 -14.253906 11.648438 -14.21875 11.609375 -14.1875 C 11.597656 -14.175781 11.597656 -14.164062 11.609375 -14.15625 C 11.617188 -14.15625 11.628906 -14.160156 11.640625 -14.171875 C 11.515625 -14.023438 11.390625 -13.914062 11.265625 -13.84375 C 11.234375 -13.832031 11.195312 -13.816406 11.15625 -13.796875 C 11.113281 -13.785156 11.070312 -13.769531 11.03125 -13.75 C 10.988281 -13.738281 10.914062 -13.707031 10.8125 -13.65625 C 10.726562 -13.625 10.644531 -13.601562 10.5625 -13.59375 C 10.488281 -13.582031 10.410156 -13.566406 10.328125 -13.546875 L 9.828125 -13.4375 C 9.710938 -13.414062 9.597656 -13.394531 9.484375 -13.375 C 9.378906 -13.351562 9.269531 -13.328125 9.15625 -13.296875 C 9.050781 -13.273438 8.9375 -13.25 8.8125 -13.21875 C 8.695312 -13.1875 8.585938 -13.15625 8.484375 -13.125 C 8.367188 -13.113281 8.25 -13.09375 8.125 -13.0625 C 8 -13.039062 7.890625 -13.019531 7.796875 -13 C 7.710938 -12.976562 7.628906 -12.957031 7.546875 -12.9375 C 7.472656 -12.925781 7.394531 -12.914062 7.3125 -12.90625 C 7.3125 -12.820312 7.304688 -12.742188 7.296875 -12.671875 C 7.285156 -12.609375 7.28125 -12.535156 7.28125 -12.453125 C 7.269531 -12.285156 7.257812 -12.125 7.25 -11.96875 C 7.25 -11.820312 7.253906 -11.679688 7.265625 -11.546875 L 7.265625 -11.390625 C 7.296875 -11.265625 7.3125 -11.113281 7.3125 -10.9375 C 7.320312 -10.769531 7.332031 -10.601562 7.34375 -10.4375 C 7.34375 -10.3125 7.34375 -10.175781 7.34375 -10.03125 C 7.351562 -9.882812 7.359375 -9.734375 7.359375 -9.578125 C 7.390625 -9.023438 7.414062 -8.429688 7.4375 -7.796875 C 7.46875 -7.171875 7.488281 -6.554688 7.5 -5.953125 C 7.507812 -5.097656 7.546875 -4.242188 7.609375 -3.390625 C 7.640625 -2.984375 7.660156 -2.582031 7.671875 -2.1875 C 7.679688 -1.789062 7.679688 -1.394531 7.671875 -1 C 7.660156 -1.007812 7.65625 -1.007812 7.65625 -1 C 7.65625 -0.988281 7.640625 -0.988281 7.609375 -1 C 7.628906 -0.9375 7.625 -0.878906 7.59375 -0.828125 C 7.570312 -0.785156 7.5625 -0.734375 7.5625 -0.671875 C 7.582031 -0.648438 7.59375 -0.644531 7.59375 -0.65625 C 7.601562 -0.675781 7.617188 -0.675781 7.640625 -0.65625 C 7.640625 -0.644531 7.613281 -0.640625 7.5625 -0.640625 C 7.582031 -0.585938 7.570312 -0.546875 7.53125 -0.515625 C 7.5 -0.484375 7.488281 -0.425781 7.5 -0.34375 C 7.476562 -0.382812 7.457031 -0.363281 7.4375 -0.28125 C 7.414062 -0.195312 7.390625 -0.15625 7.359375 -0.15625 C 7.347656 -0.195312 7.347656 -0.207031 7.359375 -0.1875 C 7.378906 -0.175781 7.378906 -0.191406 7.359375 -0.234375 C 7.347656 -0.253906 7.335938 -0.242188 7.328125 -0.203125 C 7.328125 -0.171875 7.3125 -0.15625 7.28125 -0.15625 C 7.28125 -0.175781 7.285156 -0.191406 7.296875 -0.203125 C 7.316406 -0.210938 7.320312 -0.226562 7.3125 -0.25 C 7.3125 -0.238281 7.304688 -0.234375 7.296875 -0.234375 C 7.285156 -0.234375 7.28125 -0.21875 7.28125 -0.1875 C 7.269531 -0.1875 7.265625 -0.195312 7.265625 -0.21875 C 7.273438 -0.25 7.273438 -0.265625 7.265625 -0.265625 C 7.234375 -0.242188 7.203125 -0.207031 7.171875 -0.15625 C 7.148438 -0.113281 7.101562 -0.0976562 7.03125 -0.109375 C 7.050781 -0.109375 7.066406 -0.117188 7.078125 -0.140625 C 7.097656 -0.171875 7.097656 -0.207031 7.078125 -0.25 C 7.085938 -0.226562 7.082031 -0.210938 7.0625 -0.203125 C 7.039062 -0.191406 7.03125 -0.1875 7.03125 -0.1875 C 7 -0.15625 6.972656 -0.113281 6.953125 -0.0625 C 6.929688 -0.0195312 6.894531 0.0195312 6.84375 0.0625 C 6.832031 0.0625 6.828125 0.0390625 6.828125 0 C 6.796875 0.0078125 6.769531 0.03125 6.75 0.0625 C 6.738281 0.09375 6.707031 0.117188 6.65625 0.140625 C 6.632812 0.109375 6.617188 0.0859375 6.609375 0.078125 C 6.609375 0.078125 6.613281 0.0546875 6.625 0.015625 C 6.5625 0.171875 6.476562 0.175781 6.375 0.03125 C 6.375 0.03125 6.375 0.0703125 6.375 0.15625 C 6.363281 0.101562 6.351562 0.0859375 6.34375 0.109375 C 6.34375 0.128906 6.34375 0.148438 6.34375 0.171875 C 6.300781 0.109375 6.300781 0.046875 6.34375 -0.015625 C 6.332031 -0.046875 6.316406 -0.046875 6.296875 -0.015625 C 6.285156 0.015625 6.273438 0.015625 6.265625 -0.015625 C 6.203125 0.046875 6.171875 0.109375 6.171875 0.171875 C 6.160156 0.148438 6.144531 0.132812 6.125 0.125 C 6.113281 0.113281 6.109375 0.0820312 6.109375 0.03125 C 6.066406 0.0507812 6.035156 0.0976562 6.015625 0.171875 C 5.992188 0.109375 5.992188 0.0507812 6.015625 0 C 6.035156 -0.0625 6.03125 -0.125 6 -0.1875 C 5.988281 -0.125 5.972656 -0.0703125 5.953125 -0.03125 C 5.929688 0.0078125 5.914062 0.078125 5.90625 0.171875 C 5.875 0.171875 5.847656 0.171875 5.828125 0.171875 C 5.804688 0.179688 5.769531 0.179688 5.71875 0.171875 C 5.75 0.148438 5.753906 0.128906 5.734375 0.109375 C 5.722656 0.0976562 5.710938 0.0703125 5.703125 0.03125 C 5.691406 0.0703125 5.6875 0.113281 5.6875 0.15625 C 5.6875 0.207031 5.6875 0.253906 5.6875 0.296875 C 5.632812 0.210938 5.601562 0.109375 5.59375 -0.015625 C 5.582031 -0.015625 5.578125 -0.00390625 5.578125 0.015625 C 5.554688 -0.00390625 5.550781 -0.0234375 5.5625 -0.046875 C 5.582031 -0.0664062 5.578125 -0.0820312 5.546875 -0.09375 C 5.535156 -0.0820312 5.53125 -0.0507812 5.53125 0 C 5.539062 0.0507812 5.535156 0.0859375 5.515625 0.109375 C 5.503906 0.0859375 5.5 0.0625 5.5 0.03125 C 5.5 0 5.5 -0.03125 5.5 -0.0625 C 5.46875 -0.0195312 5.421875 0.00390625 5.359375 0.015625 C 5.304688 0.0234375 5.257812 0.0546875 5.21875 0.109375 C 5.21875 0.046875 5.222656 0.0078125 5.234375 0 C 5.253906 -0.0195312 5.269531 -0.0664062 5.28125 -0.140625 C 5.238281 -0.0976562 5.179688 -0.0546875 5.109375 -0.015625 C 5.117188 -0.046875 5.128906 -0.0625 5.140625 -0.0625 C 5.160156 -0.0703125 5.171875 -0.0820312 5.171875 -0.09375 C 5.171875 -0.0820312 5.148438 -0.078125 5.109375 -0.078125 C 5.117188 -0.0976562 5.128906 -0.117188 5.140625 -0.140625 C 5.160156 -0.171875 5.160156 -0.203125 5.140625 -0.234375 C 5.128906 -0.222656 5.117188 -0.21875 5.109375 -0.21875 C 5.109375 -0.226562 5.101562 -0.21875 5.09375 -0.1875 L 5.09375 -0.25 C 5.082031 -0.226562 5.070312 -0.222656 5.0625 -0.234375 C 5.050781 -0.242188 5.039062 -0.242188 5.03125 -0.234375 C 5.019531 -0.253906 5.019531 -0.265625 5.03125 -0.265625 C 5.039062 -0.265625 5.046875 -0.273438 5.046875 -0.296875 C 5.035156 -0.304688 5.023438 -0.296875 5.015625 -0.265625 C 5.015625 -0.234375 5.007812 -0.234375 5 -0.265625 L 5.015625 -0.328125 C 4.984375 -0.328125 4.957031 -0.320312 4.9375 -0.3125 C 4.925781 -0.300781 4.90625 -0.296875 4.875 -0.296875 C 4.914062 -0.378906 4.941406 -0.460938 4.953125 -0.546875 C 4.960938 -0.628906 4.976562 -0.710938 5 -0.796875 C 5 -0.816406 4.988281 -0.816406 4.96875 -0.796875 C 4.957031 -0.773438 4.953125 -0.753906 4.953125 -0.734375 C 4.929688 -0.742188 4.925781 -0.757812 4.9375 -0.78125 C 4.957031 -0.800781 4.96875 -0.820312 4.96875 -0.84375 C 4.914062 -0.769531 4.875 -0.738281 4.84375 -0.75 C 4.84375 -0.78125 4.84375 -0.796875 4.84375 -0.796875 C 4.851562 -0.804688 4.859375 -0.820312 4.859375 -0.84375 C 4.816406 -0.84375 4.796875 -0.835938 4.796875 -0.828125 C 4.796875 -0.890625 4.816406 -0.945312 4.859375 -1 C 4.898438 -1.050781 4.898438 -1.109375 4.859375 -1.171875 C 4.910156 -1.316406 4.953125 -1.472656 4.984375 -1.640625 C 5.015625 -1.816406 5.023438 -1.988281 5.015625 -2.15625 C 5.003906 -2.15625 4.992188 -2.148438 4.984375 -2.140625 C 4.972656 -2.128906 4.96875 -2.132812 4.96875 -2.15625 C 4.882812 -2 4.835938 -1.789062 4.828125 -1.53125 C 4.816406 -1.28125 4.78125 -1.082031 4.71875 -0.9375 C 4.738281 -0.894531 4.742188 -0.851562 4.734375 -0.8125 C 4.722656 -0.769531 4.710938 -0.722656 4.703125 -0.671875 C 4.734375 -0.671875 4.738281 -0.640625 4.71875 -0.578125 C 4.769531 -0.578125 4.796875 -0.609375 4.796875 -0.671875 L 4.796875 -0.640625 C 4.804688 -0.640625 4.8125 -0.65625 4.8125 -0.6875 C 4.832031 -0.6875 4.851562 -0.6875 4.875 -0.6875 C 4.90625 -0.6875 4.929688 -0.679688 4.953125 -0.671875 C 4.941406 -0.597656 4.925781 -0.535156 4.90625 -0.484375 C 4.894531 -0.441406 4.878906 -0.390625 4.859375 -0.328125 C 4.847656 -0.335938 4.828125 -0.335938 4.796875 -0.328125 C 4.765625 -0.316406 4.75 -0.289062 4.75 -0.25 C 4.726562 -0.289062 4.734375 -0.351562 4.765625 -0.4375 C 4.734375 -0.425781 4.710938 -0.398438 4.703125 -0.359375 C 4.703125 -0.328125 4.691406 -0.296875 4.671875 -0.265625 C 4.648438 -0.296875 4.648438 -0.328125 4.671875 -0.359375 C 4.691406 -0.398438 4.703125 -0.445312 4.703125 -0.5 C 4.679688 -0.488281 4.648438 -0.453125 4.609375 -0.390625 C 4.578125 -0.335938 4.550781 -0.296875 4.53125 -0.265625 C 4.519531 -0.296875 4.519531 -0.328125 4.53125 -0.359375 C 4.539062 -0.390625 4.550781 -0.410156 4.5625 -0.421875 C 4.539062 -0.398438 4.535156 -0.421875 4.546875 -0.484375 C 4.535156 -0.492188 4.515625 -0.488281 4.484375 -0.46875 C 4.453125 -0.445312 4.429688 -0.429688 4.421875 -0.421875 C 4.398438 -0.453125 4.398438 -0.472656 4.421875 -0.484375 C 4.453125 -0.492188 4.460938 -0.515625 4.453125 -0.546875 C 4.441406 -0.546875 4.4375 -0.546875 4.4375 -0.546875 C 4.425781 -0.546875 4.421875 -0.535156 4.421875 -0.515625 C 4.421875 -0.503906 4.410156 -0.492188 4.390625 -0.484375 C 4.367188 -0.523438 4.363281 -0.585938 4.375 -0.671875 C 4.351562 -0.703125 4.34375 -0.675781 4.34375 -0.59375 C 4.34375 -0.632812 4.347656 -0.6875 4.359375 -0.75 C 4.367188 -0.8125 4.378906 -0.867188 4.390625 -0.921875 C 4.390625 -0.921875 4.390625 -0.910156 4.390625 -0.890625 C 4.421875 -0.890625 4.4375 -0.894531 4.4375 -0.90625 C 4.4375 -0.914062 4.441406 -0.925781 4.453125 -0.9375 C 4.429688 -0.96875 4.421875 -0.976562 4.421875 -0.96875 C 4.398438 -1 4.394531 -1.023438 4.40625 -1.046875 C 4.425781 -1.066406 4.4375 -1.09375 4.4375 -1.125 C 4.476562 -1.101562 4.503906 -1.128906 4.515625 -1.203125 C 4.535156 -1.273438 4.546875 -1.332031 4.546875 -1.375 C 4.535156 -1.351562 4.515625 -1.328125 4.484375 -1.296875 C 4.460938 -1.265625 4.441406 -1.234375 4.421875 -1.203125 C 4.398438 -1.222656 4.398438 -1.25 4.421875 -1.28125 C 4.441406 -1.320312 4.457031 -1.351562 4.46875 -1.375 C 4.4375 -1.351562 4.410156 -1.3125 4.390625 -1.25 C 4.378906 -1.195312 4.363281 -1.160156 4.34375 -1.140625 C 4.351562 -1.097656 4.351562 -1.050781 4.34375 -1 C 4.34375 -0.945312 4.347656 -0.910156 4.359375 -0.890625 C 4.359375 -0.828125 4.34375 -0.769531 4.3125 -0.71875 C 4.289062 -0.75 4.28125 -0.773438 4.28125 -0.796875 C 4.207031 -0.765625 4.160156 -0.800781 4.140625 -0.90625 C 4.128906 -1.007812 4.125 -1.109375 4.125 -1.203125 C 4.125 -1.242188 4.117188 -1.265625 4.109375 -1.265625 C 4.128906 -1.335938 4.132812 -1.40625 4.125 -1.46875 C 4.125 -1.53125 4.125 -1.59375 4.125 -1.65625 C 4.132812 -1.75 4.140625 -1.84375 4.140625 -1.9375 C 4.140625 -2.03125 4.148438 -2.125 4.171875 -2.21875 L 4.21875 -2.75 C 4.226562 -2.945312 4.238281 -3.125 4.25 -3.28125 C 4.257812 -3.4375 4.269531 -3.613281 4.28125 -3.8125 L 4.34375 -5.171875 C 4.363281 -5.554688 4.382812 -5.945312 4.40625 -6.34375 C 4.4375 -6.738281 4.457031 -7.144531 4.46875 -7.5625 C 4.46875 -7.644531 4.472656 -7.738281 4.484375 -7.84375 C 4.492188 -7.945312 4.503906 -8.046875 4.515625 -8.140625 C 4.515625 -8.242188 4.515625 -8.34375 4.515625 -8.4375 C 4.515625 -8.53125 4.519531 -8.625 4.53125 -8.71875 L 4.53125 -9.3125 C 4.53125 -9.414062 4.53125 -9.507812 4.53125 -9.59375 C 4.53125 -9.6875 4.523438 -9.78125 4.515625 -9.875 C 4.503906 -10.25 4.488281 -10.640625 4.46875 -11.046875 C 4.445312 -11.460938 4.410156 -11.863281 4.359375 -12.25 C 4.359375 -12.25 4.351562 -12.25 4.34375 -12.25 C 4.289062 -12.195312 4.238281 -12.171875 4.1875 -12.171875 C 4.132812 -12.179688 4.078125 -12.171875 4.015625 -12.140625 C 3.972656 -12.109375 3.945312 -12.09375 3.9375 -12.09375 C 3.9375 -12.09375 3.914062 -12.09375 3.875 -12.09375 C 3.863281 -12.09375 3.851562 -12.085938 3.84375 -12.078125 C 3.84375 -12.066406 3.832031 -12.0625 3.8125 -12.0625 C 3.800781 -12.0625 3.785156 -12.066406 3.765625 -12.078125 C 3.742188 -12.085938 3.722656 -12.09375 3.703125 -12.09375 C 3.691406 -12.09375 3.679688 -12.082031 3.671875 -12.0625 C 3.660156 -12.050781 3.644531 -12.046875 3.625 -12.046875 C 3.601562 -12.035156 3.582031 -12.035156 3.5625 -12.046875 C 3.539062 -12.054688 3.523438 -12.0625 3.515625 -12.0625 C 3.472656 -12.050781 3.4375 -12.03125 3.40625 -12 C 3.375 -11.976562 3.328125 -11.988281 3.265625 -12.03125 C 3.234375 -12.019531 3.191406 -12.007812 3.140625 -12 C 3.097656 -12 3.0625 -11.984375 3.03125 -11.953125 C 3.019531 -11.941406 3.003906 -11.925781 2.984375 -11.90625 C 2.960938 -11.882812 2.9375 -11.875 2.90625 -11.875 L 2.828125 -11.875 C 2.773438 -11.875 2.722656 -11.859375 2.671875 -11.828125 C 2.628906 -11.796875 2.582031 -11.785156 2.53125 -11.796875 C 2.445312 -11.765625 2.351562 -11.75 2.25 -11.75 C 2.15625 -11.757812 2.085938 -11.71875 2.046875 -11.625 C 2.046875 -11.550781 2.023438 -11.515625 1.984375 -11.515625 C 1.972656 -11.492188 1.957031 -11.488281 1.9375 -11.5 C 1.925781 -11.519531 1.910156 -11.535156 1.890625 -11.546875 C 1.847656 -11.546875 1.796875 -11.546875 1.734375 -11.546875 C 1.671875 -11.546875 1.617188 -11.535156 1.578125 -11.515625 C 1.566406 -11.492188 1.554688 -11.472656 1.546875 -11.453125 C 1.546875 -11.429688 1.53125 -11.410156 1.5 -11.390625 C 1.488281 -11.378906 1.457031 -11.390625 1.40625 -11.421875 C 1.363281 -11.453125 1.328125 -11.457031 1.296875 -11.4375 C 1.273438 -11.425781 1.257812 -11.410156 1.25 -11.390625 C 1.25 -11.367188 1.238281 -11.359375 1.21875 -11.359375 C 1.132812 -11.328125 1.082031 -11.363281 1.0625 -11.46875 C 1.050781 -11.46875 1.046875 -11.460938 1.046875 -11.453125 C 1.046875 -11.441406 1.035156 -11.4375 1.015625 -11.4375 C 0.960938 -11.5 0.894531 -11.53125 0.8125 -11.53125 C 0.726562 -11.539062 0.65625 -11.539062 0.59375 -11.53125 C 0.59375 -11.53125 0.578125 -11.53125 0.546875 -11.53125 C 0.453125 -11.539062 0.363281 -11.570312 0.28125 -11.625 C 0.195312 -11.675781 0.113281 -11.726562 0.03125 -11.78125 C 0.0078125 -11.800781 0 -11.820312 0 -11.84375 C -0.0390625 -11.863281 -0.0703125 -11.890625 -0.09375 -11.921875 C -0.125 -11.953125 -0.148438 -11.976562 -0.171875 -12 C -0.179688 -12.019531 -0.195312 -12.035156 -0.21875 -12.046875 C -0.238281 -12.054688 -0.253906 -12.082031 -0.265625 -12.125 C -0.285156 -12.164062 -0.332031 -12.222656 -0.40625 -12.296875 C -0.425781 -12.335938 -0.445312 -12.375 -0.46875 -12.40625 C -0.5 -12.4375 -0.523438 -12.457031 -0.546875 -12.46875 C -0.566406 -12.539062 -0.582031 -12.601562 -0.59375 -12.65625 C -0.601562 -12.71875 -0.628906 -12.773438 -0.671875 -12.828125 C -0.679688 -12.921875 -0.691406 -13.015625 -0.703125 -13.109375 C -0.722656 -13.210938 -0.742188 -13.328125 -0.765625 -13.453125 C -0.765625 -13.472656 -0.769531 -13.484375 -0.78125 -13.484375 C -0.789062 -13.492188 -0.796875 -13.503906 -0.796875 -13.515625 C -0.765625 -13.566406 -0.75 -13.628906 -0.75 -13.703125 C -0.757812 -13.785156 -0.757812 -13.851562 -0.75 -13.90625 C -0.75 -13.925781 -0.742188 -13.941406 -0.734375 -13.953125 C -0.734375 -13.972656 -0.734375 -13.988281 -0.734375 -14 C -0.703125 -14.019531 -0.6875 -14.054688 -0.6875 -14.109375 C -0.6875 -14.160156 -0.6875 -14.203125 -0.6875 -14.234375 C -0.59375 -14.296875 -0.519531 -14.382812 -0.46875 -14.5 C -0.414062 -14.625 -0.347656 -14.734375 -0.265625 -14.828125 L -0.234375 -14.828125 C -0.203125 -14.867188 -0.164062 -14.90625 -0.125 -14.9375 C -0.0820312 -14.96875 -0.046875 -15.007812 -0.015625 -15.0625 C 0.00390625 -15.09375 0.0390625 -15.113281 0.09375 -15.125 C 0.144531 -15.144531 0.191406 -15.164062 0.234375 -15.1875 C 0.253906 -15.207031 0.269531 -15.21875 0.28125 -15.21875 C 0.300781 -15.226562 0.320312 -15.238281 0.34375 -15.25 C 0.382812 -15.257812 0.421875 -15.273438 0.453125 -15.296875 C 0.484375 -15.316406 0.523438 -15.332031 0.578125 -15.34375 C 0.617188 -15.375 0.65625 -15.378906 0.6875 -15.359375 C 0.726562 -15.347656 0.769531 -15.347656 0.8125 -15.359375 C 0.832031 -15.359375 0.847656 -15.363281 0.859375 -15.375 C 0.878906 -15.394531 0.894531 -15.410156 0.90625 -15.421875 C 0.957031 -15.421875 0.992188 -15.40625 1.015625 -15.375 C 1.046875 -15.351562 1.082031 -15.335938 1.125 -15.328125 C 1.1875 -15.347656 1.226562 -15.351562 1.25 -15.34375 C 1.28125 -15.3125 1.296875 -15.28125 1.296875 -15.25 C 1.304688 -15.226562 1.320312 -15.203125 1.34375 -15.171875 C 1.414062 -15.160156 1.460938 -15.203125 1.484375 -15.296875 C 1.503906 -15.390625 1.539062 -15.378906 1.59375 -15.265625 C 1.644531 -15.210938 1.710938 -15.195312 1.796875 -15.21875 C 1.878906 -15.238281 1.945312 -15.25 2 -15.25 C 2.050781 -15.25 2.097656 -15.242188 2.140625 -15.234375 C 2.191406 -15.234375 2.242188 -15.234375 2.296875 -15.234375 C 2.335938 -15.242188 2.378906 -15.253906 2.421875 -15.265625 C 2.460938 -15.285156 2.503906 -15.28125 2.546875 -15.25 C 2.566406 -15.28125 2.597656 -15.285156 2.640625 -15.265625 C 2.679688 -15.253906 2.726562 -15.25 2.78125 -15.25 C 2.882812 -15.25 2.984375 -15.265625 3.078125 -15.296875 C 3.179688 -15.328125 3.285156 -15.335938 3.390625 -15.328125 C 3.441406 -15.347656 3.503906 -15.351562 3.578125 -15.34375 C 3.660156 -15.34375 3.726562 -15.34375 3.78125 -15.34375 C 3.84375 -15.375 3.910156 -15.378906 3.984375 -15.359375 C 4.054688 -15.347656 4.117188 -15.347656 4.171875 -15.359375 C 4.203125 -15.378906 4.238281 -15.394531 4.28125 -15.40625 C 4.320312 -15.414062 4.351562 -15.421875 4.375 -15.421875 L 4.453125 -15.421875 C 4.503906 -15.421875 4.539062 -15.429688 4.5625 -15.453125 C 4.59375 -15.484375 4.628906 -15.5 4.671875 -15.5 C 4.703125 -15.5 4.734375 -15.488281 4.765625 -15.46875 C 4.796875 -15.445312 4.832031 -15.457031 4.875 -15.5 C 4.976562 -15.488281 5.09375 -15.503906 5.21875 -15.546875 C 5.351562 -15.597656 5.484375 -15.613281 5.609375 -15.59375 C 5.617188 -15.59375 5.625 -15.585938 5.625 -15.578125 C 5.625 -15.578125 5.632812 -15.578125 5.65625 -15.578125 C 5.738281 -15.578125 5.8125 -15.59375 5.875 -15.625 C 5.945312 -15.65625 6.019531 -15.660156 6.09375 -15.640625 C 6.113281 -15.648438 6.132812 -15.65625 6.15625 -15.65625 C 6.1875 -15.664062 6.222656 -15.671875 6.265625 -15.671875 C 6.367188 -15.710938 6.476562 -15.742188 6.59375 -15.765625 C 6.707031 -15.796875 6.816406 -15.820312 6.921875 -15.84375 C 7.035156 -15.894531 7.148438 -15.9375 7.265625 -15.96875 C 7.378906 -16 7.492188 -16.023438 7.609375 -16.046875 C 7.710938 -16.066406 7.828125 -16.09375 7.953125 -16.125 C 8.078125 -16.15625 8.191406 -16.191406 8.296875 -16.234375 C 8.421875 -16.253906 8.535156 -16.28125 8.640625 -16.3125 C 8.753906 -16.351562 8.875 -16.382812 9 -16.40625 C 9.0625 -16.4375 9.125 -16.453125 9.1875 -16.453125 C 9.25 -16.460938 9.3125 -16.472656 9.375 -16.484375 L 9.71875 -16.546875 C 9.84375 -16.566406 9.96875 -16.578125 10.09375 -16.578125 C 10.21875 -16.585938 10.34375 -16.585938 10.46875 -16.578125 C 10.59375 -16.566406 10.707031 -16.546875 10.8125 -16.515625 C 10.925781 -16.492188 11.050781 -16.460938 11.1875 -16.421875 C 11.207031 -16.410156 11.234375 -16.398438 11.265625 -16.390625 C 11.296875 -16.378906 11.328125 -16.363281 11.359375 -16.34375 L 11.515625 -16.25 C 11.617188 -16.238281 11.679688 -16.210938 11.703125 -16.171875 L 11.859375 -16.078125 C 11.878906 -15.953125 11.960938 -15.859375 12.109375 -15.796875 C 12.097656 -15.710938 12.109375 -15.65625 12.140625 -15.625 C 12.171875 -15.59375 12.171875 -15.550781 12.140625 -15.5 L 12.28125 -15.390625 C 12.269531 -15.359375 12.273438 -15.320312 12.296875 -15.28125 C 12.316406 -15.25 12.3125 -15.210938 12.28125 -15.171875 Z M -0.875 -15.546875 C -0.800781 -15.523438 -0.773438 -15.476562 -0.796875 -15.40625 C -0.816406 -15.351562 -0.851562 -15.335938 -0.90625 -15.359375 C -0.945312 -15.378906 -0.96875 -15.425781 -0.96875 -15.5 C -0.96875 -15.5625 -0.9375 -15.578125 -0.875 -15.546875 Z M 6.828125 -11.953125 C 6.835938 -12.023438 6.84375 -12.113281 6.84375 -12.21875 C 6.84375 -12.332031 6.832031 -12.410156 6.8125 -12.453125 C 6.8125 -12.429688 6.800781 -12.425781 6.78125 -12.4375 C 6.769531 -12.445312 6.765625 -12.457031 6.765625 -12.46875 C 6.765625 -12.488281 6.753906 -12.5 6.734375 -12.5 L 6.734375 -12.03125 C 6.765625 -12.03125 6.796875 -12.003906 6.828125 -11.953125 Z M 4.53125 -3.046875 L 4.53125 -3.109375 C 4.53125 -3.609375 4.546875 -4.101562 4.578125 -4.59375 C 4.609375 -5.09375 4.628906 -5.578125 4.640625 -6.046875 C 4.660156 -6.460938 4.664062 -6.867188 4.65625 -7.265625 C 4.644531 -7.660156 4.640625 -8.066406 4.640625 -8.484375 C 4.640625 -8.265625 4.632812 -8.046875 4.625 -7.828125 C 4.625 -7.609375 4.625 -7.390625 4.625 -7.171875 C 4.613281 -6.960938 4.601562 -6.753906 4.59375 -6.546875 C 4.59375 -6.335938 4.59375 -6.128906 4.59375 -5.921875 C 4.5625 -5.492188 4.523438 -5.0625 4.484375 -4.625 C 4.453125 -4.1875 4.421875 -3.742188 4.390625 -3.296875 C 4.378906 -3.273438 4.382812 -3.265625 4.40625 -3.265625 C 4.4375 -3.273438 4.441406 -3.253906 4.421875 -3.203125 C 4.421875 -3.171875 4.410156 -3.132812 4.390625 -3.09375 C 4.378906 -3.0625 4.375 -3.023438 4.375 -2.984375 C 4.351562 -2.742188 4.34375 -2.488281 4.34375 -2.21875 C 4.34375 -1.945312 4.328125 -1.679688 4.296875 -1.421875 C 4.328125 -1.523438 4.347656 -1.632812 4.359375 -1.75 C 4.367188 -1.863281 4.378906 -1.984375 4.390625 -2.109375 C 4.421875 -2.242188 4.4375 -2.375 4.4375 -2.5 C 4.4375 -2.632812 4.441406 -2.742188 4.453125 -2.828125 C 4.460938 -2.867188 4.472656 -2.90625 4.484375 -2.9375 C 4.503906 -2.96875 4.519531 -3.003906 4.53125 -3.046875 Z M 6.8125 -3.78125 L 6.8125 -3.125 C 6.832031 -3.3125 6.832031 -3.53125 6.8125 -3.78125 Z M 6.8125 -3.046875 C 6.8125 -2.921875 6.8125 -2.753906 6.8125 -2.546875 C 6.8125 -2.335938 6.816406 -2.15625 6.828125 -2 C 6.828125 -2.164062 6.828125 -2.335938 6.828125 -2.515625 C 6.828125 -2.703125 6.820312 -2.878906 6.8125 -3.046875 Z M 4.6875 -1.34375 C 4.6875 -1.382812 4.6875 -1.40625 4.6875 -1.40625 C 4.675781 -1.40625 4.660156 -1.390625 4.640625 -1.359375 C 4.617188 -1.335938 4.613281 -1.316406 4.625 -1.296875 C 4.632812 -1.304688 4.644531 -1.320312 4.65625 -1.34375 C 4.664062 -1.363281 4.675781 -1.363281 4.6875 -1.34375 Z M 5.015625 -0.328125 C 5.015625 -0.347656 5.019531 -0.375 5.03125 -0.40625 C 5.039062 -0.445312 5.046875 -0.476562 5.046875 -0.5 C 5.035156 -0.488281 5.019531 -0.46875 5 -0.4375 C 4.976562 -0.40625 4.984375 -0.367188 5.015625 -0.328125 Z M 6.046875 -0.328125 C 6.046875 -0.328125 6.050781 -0.335938 6.0625 -0.359375 C 6.070312 -0.390625 6.066406 -0.40625 6.046875 -0.40625 C 6.035156 -0.363281 6.03125 -0.320312 6.03125 -0.28125 C 6.039062 -0.238281 6.046875 -0.253906 6.046875 -0.328125 Z M 7.109375 -0.140625 C 7.109375 -0.160156 7.117188 -0.179688 7.140625 -0.203125 C 7.160156 -0.222656 7.171875 -0.242188 7.171875 -0.265625 C 7.097656 -0.242188 7.078125 -0.203125 7.109375 -0.140625 Z M 7.078125 -0.25 Z M 7.078125 -0.25 "/></g></g></g></svg>